<svg width="20" height="20" viewBox="0 0 22 22" fill="none" xmlns="http://www.w3.org/2000/svg" class="css-0"><path d="M1.675 9.487H5.16v8.562c0 .471-.326.88-.786.984l-1.468.332a1.008 1.008 0 01-1.23-.984V9.487z" fill="url(#paint0_radial_1554_26817)"></path><path d="M1.814 12.557C1.328 12.38 1 12.053 1 11.682V8.856c0-.042.005-.085.014-.126.065-.317.37-.59.8-.748a1.01 1.01 0 01.949-.666h3.083v5.908H2.763a1.01 1.01 0 01-.95-.667z" fill="url(#paint1_radial_1554_26817)"></path><path d="M15.409 17.804V2.737s-1.314 1.047-3.539 2.091l-.061.028A22.288 22.288 0 016.94 6.48c-.99.205-1.756 1.038-1.765 2.05a237.292 237.292 0 00-.009 3.479c0 .144.017.285.047.421.181.816.866 1.454 1.715 1.63 5.094 1.053 8.48 3.743 8.48 3.743z" fill="url(#paint2_radial_1554_26817)"></path><path d="M19.09 10.27c0 .543-.165 1.073-.474 1.52a2.704 2.704 0 01-1.257.988V7.764c.51.195.948.54 1.257.987.31.447.474.977.474 1.52z" fill="url(#paint3_radial_1554_26817)"></path><g filter="url(#filter0_d_1554_26817)"><path d="M19.09 10.27a2.68 2.68 0 01-.474 1.52 2.704 2.704 0 01-1.257.988V7.764a2.694 2.694 0 011.731 2.507z" fill="url(#paint4_radial_1554_26817)"></path><path d="M17.359 2.861v14.82c0 .388-.295.717-.695.824a1.06 1.06 0 01-.743-.065.936.936 0 01-.377-.316.787.787 0 01-.139-.442V2.861c0-.156.049-.31.14-.443a.936.936 0 01.377-.316 1.063 1.063 0 01.742-.065.99.99 0 01.407.214.86.86 0 01.213.28.77.77 0 01.075.33z" fill="url(#paint5_radial_1554_26817)"></path></g><defs><radialGradient id="paint0_radial_1554_26817" cx="0" cy="0" r="1" gradientUnits="userSpaceOnUse" gradientTransform="matrix(-3.48434 0 0 -15.8291 5.16 15.682)"><stop stop-color="#EAEAE9"></stop><stop offset=".286" stop-color="#B8BECA"></stop><stop offset=".651" stop-color="#727781"></stop><stop offset=".824" stop-color="#848A96"></stop><stop offset="1" stop-color="#E2E3E4"></stop></radialGradient><radialGradient id="paint1_radial_1554_26817" cx="0" cy="0" r="1" gradientUnits="userSpaceOnUse" gradientTransform="rotate(106.863 -2.155 5.124) scale(3.87418 18.9168)"><stop stop-color="#EAEAE9"></stop><stop offset=".286" stop-color="#B8BECA"></stop><stop offset=".651" stop-color="#727781"></stop><stop offset="1" stop-color="#A6AAB3"></stop></radialGradient><radialGradient id="paint2_radial_1554_26817" cx="0" cy="0" r="1" gradientUnits="userSpaceOnUse" gradientTransform="rotate(112.08 2.946 7.418) scale(9.01253 38.8322)"><stop stop-color="#D5D8DA"></stop><stop offset=".286" stop-color="#C8C8C8"></stop><stop offset=".651" stop-color="#8B8C8E"></stop><stop offset="1" stop-color="#8691A8"></stop></radialGradient><radialGradient id="paint3_radial_1554_26817" cx="0" cy="0" r="1" gradientUnits="userSpaceOnUse" gradientTransform="rotate(101.637 5.36 12.142) scale(2.8376 6.93456)"><stop stop-color="#EAEAE9"></stop><stop offset=".286" stop-color="#D6D7D9"></stop><stop offset=".651" stop-color="#8B8C8E"></stop><stop offset="1" stop-color="#A4A4A4"></stop></radialGradient><radialGradient id="paint4_radial_1554_26817" cx="0" cy="0" r="1" gradientUnits="userSpaceOnUse" gradientTransform="matrix(-1.2184 9.16907 -14.80972 -1.96794 17.478 7.204)"><stop stop-color="#EAEAE9"></stop><stop offset=".286" stop-color="#D6D7D9"></stop><stop offset=".651" stop-color="#8B8C8E"></stop><stop offset="1" stop-color="#A4A4A4"></stop></radialGradient><radialGradient id="paint5_radial_1554_26817" cx="0" cy="0" r="1" gradientUnits="userSpaceOnUse" gradientTransform="matrix(0 11.8892 -2.61586 0 16.382 8.178)"><stop stop-color="#D3D3D3"></stop><stop offset=".286" stop-color="#BBB"></stop><stop offset=".651" stop-color="#A2A2A3"></stop><stop offset="1" stop-color="#A4A4A4"></stop></radialGradient><filter id="filter0_d_1554_26817" x="13.893" y=".488" width="7.717" height="20.575" filterUnits="userSpaceOnUse" color-interpolation-filters="sRGB"><feFlood flood-opacity="0" result="BackgroundImageFix"></feFlood><feColorMatrix in="SourceAlpha" values="0 0 0 0 0 0 0 0 0 0 0 0 0 0 0 0 0 0 127 0" result="hardAlpha"></feColorMatrix><feOffset dx=".504" dy=".504"></feOffset><feGaussianBlur stdDeviation="1.008"></feGaussianBlur><feComposite in2="hardAlpha" operator="out"></feComposite><feColorMatrix values="0 0 0 0 0 0 0 0 0 0 0 0 0 0 0 0 0 0 0.6 0"></feColorMatrix><feBlend in2="BackgroundImageFix" result="effect1_dropShadow_1554_26817"></feBlend><feBlend in="SourceGraphic" in2="effect1_dropShadow_1554_26817" result="shape"></feBlend></filter></defs></svg>