<svg width="20" height="20" viewBox="0 0 20 20" fill="none" xmlns="http://www.w3.org/2000/svg" class="css-0"><rect x="3.531" y="1.264" width="15.825" height="15.825" rx="2" transform="rotate(8.526 3.531 1.264)" fill="#5682A4"></rect><mask id="a" maskUnits="userSpaceOnUse" x="1" y="1" width="18" height="18" style="mask-type: alpha;"><rect x="3.535" y="1.146" width="15.825" height="15.825" rx="2" transform="rotate(8.526 3.535 1.146)" fill="#467296"></rect></mask><g filter="url(#filter0_d_1350_26243)" mask="url(#a)"><rect x="1.232" y="2.634" width="15.825" height="15.825" rx="2" fill="url(#paint0_linear_1350_26243)"></rect></g><rect x="1.228" y="2.634" width="15.825" height="15.825" rx="2" fill="url(#paint1_linear_1350_26243)"></rect><mask id="b" maskUnits="userSpaceOnUse" x="1" y="2" width="17" height="17" style="mask-type: alpha;"><rect x="1.229" y="2.634" width="15.825" height="15.825" rx="2" fill="url(#paint2_linear_1350_26243)"></rect></mask><g mask="url(#b)"><path fill-rule="evenodd" clip-rule="evenodd" d="M6.136 7.425a1 1 0 00-1.56 0l-9.96 12.402a1 1 0 00.78 1.626h7.752a.75.75 0 01.585 1.22 1 1 0 00.78 1.626h19.919a1 1 0 00.78-1.626l-9.96-12.402a1 1 0 00-1.56 0l-1.856 2.31a1 1 0 01-1.56 0l-4.14-5.156z" fill="#5A85A7"></path></g><circle cx="11.916" cy="6.511" r="1.741" fill="#ECCF86"></circle><defs><linearGradient id="paint0_linear_1350_26243" x1="9.144" y1="2.634" x2="9.144" y2="18.459" gradientUnits="userSpaceOnUse"><stop stop-color="#C9E9FF"></stop><stop offset=".029" stop-color="#BAE2FF"></stop><stop offset=".063" stop-color="#A9CEE9"></stop><stop offset=".31" stop-color="#97BCD8"></stop><stop offset="1" stop-color="#6E8DA6"></stop></linearGradient><linearGradient id="paint1_linear_1350_26243" x1="9.14" y1="2.634" x2="9.14" y2="18.459" gradientUnits="userSpaceOnUse"><stop stop-color="#C9E9FF"></stop><stop offset=".029" stop-color="#BAE2FF"></stop><stop offset=".063" stop-color="#A9CEE9"></stop><stop offset=".31" stop-color="#97BCD8"></stop><stop offset="1" stop-color="#6E8DA6"></stop></linearGradient><linearGradient id="paint2_linear_1350_26243" x1="9.142" y1="2.634" x2="9.142" y2="18.459" gradientUnits="userSpaceOnUse"><stop stop-color="#fff"></stop><stop offset=".047" stop-color="#A9CEE8"></stop><stop offset="1" stop-color="#638EB1"></stop></linearGradient><filter id="filter0_d_1350_26243" x=".432" y="1.834" width="17.825" height="17.825" filterUnits="userSpaceOnUse" color-interpolation-filters="sRGB"><feFlood flood-opacity="0" result="BackgroundImageFix"></feFlood><feColorMatrix in="SourceAlpha" values="0 0 0 0 0 0 0 0 0 0 0 0 0 0 0 0 0 0 127 0" result="hardAlpha"></feColorMatrix><feOffset dx=".2" dy=".2"></feOffset><feGaussianBlur stdDeviation=".5"></feGaussianBlur><feComposite in2="hardAlpha" operator="out"></feComposite><feColorMatrix values="0 0 0 0 0 0 0 0 0 0 0 0 0 0 0 0 0 0 0.8 0"></feColorMatrix><feBlend in2="BackgroundImageFix" result="effect1_dropShadow_1350_26243"></feBlend><feBlend in="SourceGraphic" in2="effect1_dropShadow_1350_26243" result="shape"></feBlend></filter></defs></svg>