<svg width="20" height="20" viewBox="0 0 20 20" fill="none" xmlns="http://www.w3.org/2000/svg" class="css-0"><path fill-rule="evenodd" clip-rule="evenodd" d="M5 16l-2 4h2.5l2-4H5zm10 0l2 4h-2.5l-2-4H15z" fill="url(#paint0_linear_1168_206530)"></path><rect y="2" width="20" height="15" rx="2" fill="url(#paint1_linear_1168_206530)"></rect><rect y="2" width="20" height="15" rx="2" fill="url(#paint2_linear_1168_206530)"></rect><g filter="url(#filter0_i_1168_206530)"><path fill-rule="evenodd" clip-rule="evenodd" d="M16 5h-3v9h3V5zM8.5 9h3v5h-3V9zM4 11h3v3H4v-3z" fill="url(#paint3_linear_1168_206530)"></path></g><defs><linearGradient id="paint0_linear_1168_206530" x1="10.5" y1="18.5" x2="10.5" y2="17" gradientUnits="userSpaceOnUse"><stop stop-color="#937254"></stop><stop offset="1" stop-color="#704C2C"></stop></linearGradient><linearGradient id="paint1_linear_1168_206530" x1="8.5" y1=".5" x2="12" y2="21" gradientUnits="userSpaceOnUse"><stop stop-color="#F7FFF3"></stop><stop offset="1" stop-color="#9AA894"></stop></linearGradient><linearGradient id="paint2_linear_1168_206530" x1="14" y1="21" x2="14" y2="14" gradientUnits="userSpaceOnUse"><stop stop-color="#DDF7C8"></stop><stop offset="1" stop-color="#F5FFED" stop-opacity="0"></stop></linearGradient><linearGradient id="paint3_linear_1168_206530" x1="10" y1="7" x2="10" y2="17" gradientUnits="userSpaceOnUse"><stop stop-color="#75A663"></stop><stop offset="1" stop-color="#18300F"></stop></linearGradient><filter id="filter0_i_1168_206530" x="4" y="5" width="12.4" height="9.25" filterUnits="userSpaceOnUse" color-interpolation-filters="sRGB"><feFlood flood-opacity="0" result="BackgroundImageFix"></feFlood><feBlend in="SourceGraphic" in2="BackgroundImageFix" result="shape"></feBlend><feColorMatrix in="SourceAlpha" values="0 0 0 0 0 0 0 0 0 0 0 0 0 0 0 0 0 0 127 0" result="hardAlpha"></feColorMatrix><feOffset dx=".4" dy=".25"></feOffset><feGaussianBlur stdDeviation=".25"></feGaussianBlur><feComposite in2="hardAlpha" operator="arithmetic" k2="-1" k3="1"></feComposite><feColorMatrix values="0 0 0 0 0.396078 0 0 0 0 0.505882 0 0 0 0 0.356863 0 0 0 0.3 0"></feColorMatrix><feBlend in2="shape" result="effect1_innerShadow_1168_206530"></feBlend></filter></defs></svg>