<svg width="20" height="20" viewBox="0 0 20 21" fill="none" xmlns="http://www.w3.org/2000/svg" class="css-0"><g clip-path="url(#clip0_2253_174893)"><path fill-rule="evenodd" clip-rule="evenodd" d="M18.7651 6.82857H17.5827V13.9728H18.6667C19.265 13.9728 19.75 14.4578 19.75 15.0561V17.6626V19.3894C19.75 19.9877 19.265 20.4728 18.6667 20.4728H1.33333C0.735025 20.4728 0.25 19.9877 0.25 19.3894V17.6626V15.0561C0.25 14.4578 0.735025 13.9728 1.33333 13.9728H2.41602V6.82857H1.23492C0.690966 6.82857 0.25 6.3876 0.25 5.84364C0.25 5.45441 0.479226 5.10169 0.834909 4.94361L9.56002 1.06578C9.84013 0.941288 10.1599 0.941289 10.44 1.06578L19.1651 4.94361C19.5208 5.10169 19.75 5.45441 19.75 5.84364C19.75 6.3876 19.309 6.82857 18.7651 6.82857Z" fill="#8BBBDF"></path><path fill-rule="evenodd" clip-rule="evenodd" d="M18.7651 6.82857H17.5827V13.9728H18.6667C19.265 13.9728 19.75 14.4578 19.75 15.0561V17.6626V19.3894C19.75 19.9877 19.265 20.4728 18.6667 20.4728H1.33333C0.735025 20.4728 0.25 19.9877 0.25 19.3894V17.6626V15.0561C0.25 14.4578 0.735025 13.9728 1.33333 13.9728H2.41602V6.82857H1.23492C0.690966 6.82857 0.25 6.3876 0.25 5.84364C0.25 5.45441 0.479226 5.10169 0.834909 4.94361L9.56002 1.06578C9.84013 0.941288 10.1599 0.941289 10.44 1.06578L19.1651 4.94361C19.5208 5.10169 19.75 5.45441 19.75 5.84364C19.75 6.3876 19.309 6.82857 18.7651 6.82857Z" fill="url(#paint0_linear_2253_174893)"></path><path opacity="0.9" d="M11.8787 6.60017C12.1209 6.60017 12.3173 6.38649 12.3173 6.1229C12.3173 5.85931 12.1209 5.64563 11.8787 5.64563L7.9386 5.64563C7.69637 5.64563 7.5 5.85931 7.5 6.1229C7.5 6.38649 7.69637 6.60017 7.9386 6.60017L8.85309 6.60017C9.23364 6.60017 9.67252 6.77189 9.90482 7.02468C10.0486 7.18118 10.1576 7.37912 10.2233 7.59449L8.37719 7.59449C8.13496 7.59449 7.9386 7.80817 7.9386 8.07176C7.9386 8.33535 8.13496 8.54903 8.37719 8.54903L10.2177 8.54903C10.1526 8.74191 10.0472 8.91947 9.90482 9.07437C9.636 9.36689 9.36219 9.54334 8.89395 9.54334H8.0087C7.82052 9.54334 7.65332 9.67397 7.59314 9.86799C7.53296 10.062 7.59322 10.2762 7.74291 10.4003L10.3336 12.548C10.5263 12.7077 10.8015 12.6672 10.9483 12.4576C11.0951 12.2479 11.0579 11.9484 10.8652 11.7887L9.2726 10.4684C9.81498 10.3802 10.2007 10.1024 10.5251 9.74933C10.8314 9.416 11.0409 9.0041 11.1275 8.54903L12.0614 8.54903C12.3036 8.54903 12.5 8.33535 12.5 8.07176C12.5 7.80817 12.3036 7.59449 12.0614 7.59449L11.1288 7.59449C11.0637 7.23722 10.9263 6.89413 10.7243 6.60017H11.8787Z" fill="#272829"></path><path d="M7.38199 19.4227H6.59549V16.2589H6.57166L5.4217 19.4227H4.75436L3.60441 16.2589H3.58057V19.4227H2.79407V15.2519H4.00957L5.09995 18.2191H5.12378L6.20224 15.2519H7.38199V19.4227ZM9.88887 17.9212H9.10832V19.4227H8.32182V15.2519H9.82332C10.6098 15.2519 11.2891 15.7345 11.2891 16.5866C11.2891 17.3552 10.6932 17.9212 9.88887 17.9212ZM10.4787 16.5866C10.4787 16.2648 10.2642 15.9788 9.67437 15.9788H9.10832V17.2062H9.75778C10.2523 17.2062 10.4787 16.9202 10.4787 16.5866ZM13.5139 17.9212H12.7334V19.4227H11.9469V15.2519H13.4484C14.2349 15.2519 14.9141 15.7345 14.9141 16.5866C14.9141 17.3552 14.3183 17.9212 13.5139 17.9212ZM14.1038 16.5866C14.1038 16.2648 13.8893 15.9788 13.2994 15.9788H12.7334V17.2062H13.3828C13.8774 17.2062 14.1038 16.9202 14.1038 16.5866ZM15.5719 15.2519H16.3584V18.7018H18.134V19.4227H15.5719V15.2519Z" fill="#2F353A"></path></g><defs><linearGradient id="paint0_linear_2253_174893" x1="9.48684" y1="0.972412" x2="9.48684" y2="20.4728" gradientUnits="userSpaceOnUse"><stop stop-color="#C9E9FF"></stop><stop offset="0.028816" stop-color="#BAE2FF"></stop><stop offset="0.0625" stop-color="#9FCBEC"></stop><stop offset="0.309626" stop-color="#88B8DC"></stop><stop offset="1" stop-color="#448AC4"></stop></linearGradient><clipPath id="clip0_2253_174893"><rect width="20" height="20" fill="white" transform="translate(0 0.722778)"></rect></clipPath></defs></svg>