<svg width="33" height="20" viewBox="0 0 33 16" fill="none" xmlns="http://www.w3.org/2000/svg" class="css-0"><path d="M7.5 5.5L33 0v16H1.943a1 1 0 01-.814-1.581L7.5 5.5z" fill="#F7A8CA"></path><path d="M1.955 0H33v16H11.55L1.144 1.585A1 1 0 011.955 0z" fill="#F43397"></path><path d="M15.576 11.036V4.7H14.55v4.752l-3.303-4.788h-1.143V11h1.026V6.248l3.303 4.788h1.143zM21.294 4.7h-4.185V11h4.185v-.936h-3.16V8.3h2.395v-.945h-2.394V5.636h3.159V4.7zm.723 0l1.665 6.336h1.098l1.467-4.77h.036l1.467 4.77h1.098L30.477 4.7h-1.053L28.29 9.317h-.054L26.823 4.7H25.77l-1.413 4.617h-.045L23.169 4.7h-1.152z" fill="#fff"></path></svg>