<svg width="20" height="20" viewBox="0 0 21 21" fill="none" xmlns="http://www.w3.org/2000/svg" class="css-0"><path d="M8.022 19.347a3.006 3.006 0 004.206 0l.334-.327a3.006 3.006 0 012.072-.858l.468-.005a3.006 3.006 0 002.974-2.975l.005-.467a3.006 3.006 0 01.859-2.072l.326-.334a3.006 3.006 0 000-4.207l-.326-.333a3.006 3.006 0 01-.859-2.073l-.005-.467a3.006 3.006 0 00-2.974-2.975l-.468-.004a3.006 3.006 0 01-2.072-.859l-.334-.327a3.006 3.006 0 00-4.206 0l-.334.327a3.006 3.006 0 01-2.072.859l-.468.004A3.006 3.006 0 002.174 5.23l-.005.467A3.006 3.006 0 011.31 7.77l-.326.333a3.006 3.006 0 000 4.207l.326.334a3.01 3.01 0 01.859 2.072l.005.467a3.006 3.006 0 002.974 2.975l.468.005a3.006 3.006 0 012.072.858l.334.327z" fill="url(#paint0_linear_1318_35177)"></path><g filter="url(#filter0_i_1318_35177)"><path fill-rule="evenodd" clip-rule="evenodd" d="M14.393 5.936a.757.757 0 010 1.071L6.93 14.474a.757.757 0 11-1.071-1.071l7.465-7.467a.757.757 0 011.07 0z" fill="url(#paint1_linear_1318_35177)"></path></g><g filter="url(#filter1_i_1318_35177)"><path fill-rule="evenodd" clip-rule="evenodd" d="M6.706 8.022a.875.875 0 101.238-1.238.875.875 0 00-1.238 1.238zm-1.071 1.07a2.39 2.39 0 103.38-3.38 2.39 2.39 0 00-3.38 3.38z" fill="url(#paint2_linear_1318_35177)"></path></g><g filter="url(#filter2_i_1318_35177)"><path fill-rule="evenodd" clip-rule="evenodd" d="M12.306 13.626a.875.875 0 101.238-1.238.875.875 0 00-1.238 1.238zm-1.071 1.07a2.39 2.39 0 103.38-3.38 2.39 2.39 0 00-3.38 3.38z" fill="url(#paint3_linear_1318_35177)"></path></g><defs><linearGradient id="paint0_linear_1318_35177" x1="11.268" y1="20.864" x2="5.873" y2=".041" gradientUnits="userSpaceOnUse"><stop stop-color="#853C5F"></stop><stop offset="1" stop-color="#D990A8"></stop></linearGradient><linearGradient id="paint1_linear_1318_35177" x1="10.126" y1="4.742" x2="10.126" y2="15.668" gradientUnits="userSpaceOnUse"><stop offset=".307" stop-color="#fff"></stop><stop offset="1" stop-color="#EEE0E6"></stop></linearGradient><linearGradient id="paint2_linear_1318_35177" x1="9.381" y1="5.347" x2="5.269" y2="9.458" gradientUnits="userSpaceOnUse"><stop offset=".307" stop-color="#fff"></stop><stop offset="1" stop-color="#EEE0E6"></stop></linearGradient><linearGradient id="paint3_linear_1318_35177" x1="14.981" y1="10.951" x2="10.869" y2="15.063" gradientUnits="userSpaceOnUse"><stop offset=".307" stop-color="#fff"></stop><stop offset="1" stop-color="#EEE0E6"></stop></linearGradient><filter id="filter0_i_1318_35177" x="5.636" y="5.714" width="8.979" height="9.203" filterUnits="userSpaceOnUse" color-interpolation-filters="sRGB"><feFlood flood-opacity="0" result="BackgroundImageFix"></feFlood><feBlend in="SourceGraphic" in2="BackgroundImageFix" result="shape"></feBlend><feColorMatrix in="SourceAlpha" values="0 0 0 0 0 0 0 0 0 0 0 0 0 0 0 0 0 0 127 0" result="hardAlpha"></feColorMatrix><feOffset dy=".33"></feOffset><feGaussianBlur stdDeviation=".111"></feGaussianBlur><feComposite in2="hardAlpha" operator="arithmetic" k2="-1" k3="1"></feComposite><feColorMatrix values="0 0 0 0 0.4375 0 0 0 0 0.229687 0 0 0 0 0.317188 0 0 0 1 0"></feColorMatrix><feBlend in2="shape" result="effect1_innerShadow_1318_35177"></feBlend></filter><filter id="filter1_i_1318_35177" x="4.935" y="5.013" width="4.78" height="5.002" filterUnits="userSpaceOnUse" color-interpolation-filters="sRGB"><feFlood flood-opacity="0" result="BackgroundImageFix"></feFlood><feBlend in="SourceGraphic" in2="BackgroundImageFix" result="shape"></feBlend><feColorMatrix in="SourceAlpha" values="0 0 0 0 0 0 0 0 0 0 0 0 0 0 0 0 0 0 127 0" result="hardAlpha"></feColorMatrix><feOffset dy=".33"></feOffset><feGaussianBlur stdDeviation=".111"></feGaussianBlur><feComposite in2="hardAlpha" operator="arithmetic" k2="-1" k3="1"></feComposite><feColorMatrix values="0 0 0 0 0.4375 0 0 0 0 0.229687 0 0 0 0 0.317188 0 0 0 1 0"></feColorMatrix><feBlend in2="shape" result="effect1_innerShadow_1318_35177"></feBlend></filter><filter id="filter2_i_1318_35177" x="10.535" y="10.617" width="4.78" height="5.002" filterUnits="userSpaceOnUse" color-interpolation-filters="sRGB"><feFlood flood-opacity="0" result="BackgroundImageFix"></feFlood><feBlend in="SourceGraphic" in2="BackgroundImageFix" result="shape"></feBlend><feColorMatrix in="SourceAlpha" values="0 0 0 0 0 0 0 0 0 0 0 0 0 0 0 0 0 0 127 0" result="hardAlpha"></feColorMatrix><feOffset dy=".33"></feOffset><feGaussianBlur stdDeviation=".111"></feGaussianBlur><feComposite in2="hardAlpha" operator="arithmetic" k2="-1" k3="1"></feComposite><feColorMatrix values="0 0 0 0 0.4375 0 0 0 0 0.229687 0 0 0 0 0.317188 0 0 0 1 0"></feColorMatrix><feBlend in2="shape" result="effect1_innerShadow_1318_35177"></feBlend></filter></defs></svg>