<svg width="20" height="20" viewBox="0 0 20 20" fill="none" xmlns="http://www.w3.org/2000/svg" class="css-0"><path d="M1 9.00012C1 5.22889 1 3.34327 2.17157 2.17169C3.34315 1.00012 5.22876 1.00012 9 1.00012H11C14.7712 1.00012 16.6569 1.00012 17.8284 2.17169C19 3.34327 19 5.22889 19 9.00012V11.0001C19 14.7714 19 16.657 17.8284 17.8285C16.6569 19.0001 14.7712 19.0001 11 19.0001H9C5.22876 19.0001 3.34315 19.0001 2.17157 17.8285C1 16.657 1 14.7714 1 11.0001V9.00012Z" fill="#986161"></path><path d="M1 9.00012C1 5.22889 1 3.34327 2.17157 2.17169C3.34315 1.00012 5.22876 1.00012 9 1.00012H11C14.7712 1.00012 16.6569 1.00012 17.8284 2.17169C19 3.34327 19 5.22889 19 9.00012V11.0001C19 14.7714 19 16.657 17.8284 17.8285C16.6569 19.0001 14.7712 19.0001 11 19.0001H9C5.22876 19.0001 3.34315 19.0001 2.17157 17.8285C1 16.657 1 14.7714 1 11.0001V9.00012Z" fill="url(#paint0_radial_1861_5747)" fill-opacity="0.6"></path><mask id="mask0_1861_5747" maskUnits="userSpaceOnUse" x="1" y="1" width="18" height="19" style="mask-type: alpha;"><path d="M1 9.00012C1 5.22889 1 3.34327 2.17157 2.17169C3.34315 1.00012 5.22876 1.00012 9 1.00012H11C14.7712 1.00012 16.6569 1.00012 17.8284 2.17169C19 3.34327 19 5.22889 19 9.00012V11.0001C19 14.7714 19 16.657 17.8284 17.8285C16.6569 19.0001 14.7712 19.0001 11 19.0001H9C5.22876 19.0001 3.34315 19.0001 2.17157 17.8285C1 16.657 1 14.7714 1 11.0001V9.00012Z" fill="#D9D9D9"></path></mask><g mask="url(#mask0_1861_5747)"><g opacity="0.5" style="mix-blend-mode: multiply;"><path d="M11.17 6.72454C12.0168 5.59802 14.2712 7.20327 13.3814 8.38692L4.78803 20.7386C2.99103 23.1291 -0.119891 20.5911 1.58134 18.328L11.17 6.72454Z" fill="url(#paint1_linear_1861_5747)"></path></g><path d="M11.1474 6.28836C12.0485 5.20482 14.2213 6.91889 13.2744 8.05739L4.08451 19.9719C2.17222 22.2712 -0.810231 19.5834 1.00015 17.4067L11.1474 6.28836Z" fill="#EBD9DE"></path><path d="M8.93296 13.686L4.08449 19.9719C2.1722 22.2712 -0.810254 19.5834 1.00013 17.4067L6.36401 11.5295C7.01408 12.2583 8.00345 13.1186 8.93296 13.686Z" fill="#4F4144"></path></g><path d="M7.61029 4.71404L9.20869 4.17777L7.56411 3.64378L7.04566 1.80188L6.52248 3.64378L4.927 4.17777L6.52248 4.71404L7.04566 6.61877L7.61029 4.71404Z" fill="#FFE293"></path><path d="M17.9619 10.6282L17.5499 9.00012L17.1694 10.6282L16 11.0095L17.2211 11.4477L17.5499 13.0001L17.9619 11.3945L19 11.0095L17.9619 10.6282Z" fill="#FFE293"></path><path d="M16.2849 3.09995L15.4799 0.00012207L14.7365 3.09995L12 3.82592L14.8375 4.6603L15.4798 8.00012L16.2849 4.55898L19 3.82592L16.2849 3.09995Z" fill="#FFE293"></path><defs><radialGradient id="paint0_radial_1861_5747" cx="0" cy="0" r="1" gradientUnits="userSpaceOnUse" gradientTransform="translate(1.16157 18.2614) rotate(9.09768) scale(17.8877 19.0205)"><stop offset="0.260417" stop-color="#60659E"></stop><stop offset="0.963562" stop-color="#DE7B7B"></stop></radialGradient><linearGradient id="paint1_linear_1861_5747" x1="9.69407" y1="12.1469" x2="5.18055" y2="19.1382" gradientUnits="userSpaceOnUse"><stop stop-color="#7A505B"></stop><stop offset="1" stop-color="#7A505B" stop-opacity="0"></stop></linearGradient></defs></svg>