<svg width="20" height="20" viewBox="0 0 21 21" fill="none" xmlns="http://www.w3.org/2000/svg" class="css-0"><path d="M.246 13.532a2 2 0 012-2h4.897a2 2 0 012 2v4.898a2 2 0 01-2 2H2.247a2 2 0 01-2-2v-4.898z" fill="url(#paint0_linear_1318_35212)"></path><path d="M5.991 11.552v3.045a.554.554 0 01-.822.485l-.206-.115a.554.554 0 00-.537 0l-.206.114a.554.554 0 01-.822-.484v-3.045h2.593z" fill="url(#paint1_linear_1318_35212)"></path><path fill-rule="evenodd" clip-rule="evenodd" d="M.656 6.001C.11 5.571.11 4.84.656 4.41L5.251.804C6.073.159 7.41.652 7.41 1.6v.617h5.069a7.736 7.736 0 010 15.472h-1.74v-6h1.74a1.736 1.736 0 000-3.472H7.41v.594c0 .948-1.337 1.441-2.16.796L.657 6z" fill="url(#paint2_linear_1318_35212)"></path><defs><linearGradient id="paint0_linear_1318_35212" x1="4.695" y1="11.532" x2="4.695" y2="20.43" gradientUnits="userSpaceOnUse"><stop stop-color="#D1AF8F"></stop><stop offset="1" stop-color="#A48466"></stop></linearGradient><linearGradient id="paint1_linear_1318_35212" x1="4.696" y1="12.024" x2="4.696" y2="15.152" gradientUnits="userSpaceOnUse"><stop stop-color="#855957"></stop><stop offset=".354" stop-color="#5B3836"></stop></linearGradient><linearGradient id="paint2_linear_1318_35212" x1="11.615" y1=".015" x2="11.615" y2="16.626" gradientUnits="userSpaceOnUse"><stop stop-color="#83A8C4"></stop><stop offset="1" stop-color="#4F7592"></stop></linearGradient></defs></svg>